HIERARCHY
ROOT Hips
{
	OFFSET 0.000000 87.230942 0.000000
	CHANNELS 6 Xposition Yposition Zposition Xrotation Yrotation Zrotation
	JOINT Pelvis
	{
		OFFSET 0.000000 0.000000 0.000000
		CHANNELS 3 Xrotation Yrotation Zrotation
		JOINT LeftUpLeg
		{
			OFFSET 12.017000 -9.376404 -2.439400
			CHANNELS 3 Xrotation Yrotation Zrotation
			JOINT LeftLeg
			{
				OFFSET -0.007312 -32.846973 2.110600
				CHANNELS 3 Xrotation Yrotation Zrotation
				JOINT LeftFoot
				{
					OFFSET 0.007312 -32.065170 -0.570400
					CHANNELS 3 Xrotation Yrotation Zrotation
					JOINT LeftToeBase
					{
						OFFSET 0.728300 -11.045900 13.180700
						CHANNELS 3 Xrotation Yrotation Zrotation
						End Site
						{
							OFFSET 0.000000 17.212589 0.000000
						}
					}
				}
				JOINT LeftPantLeg
				{
					OFFSET 0.002788 -16.709013 -3.143600
					CHANNELS 3 Xrotation Yrotation Zrotation
					End Site
					{
						OFFSET -0.605125 24.528742 0.000000
					}
				}
			}
			JOINT Left_Butt
			{
				OFFSET -6.630234 1.326584 -3.183700
				CHANNELS 3 Xrotation Yrotation Zrotation
				End Site
				{
					OFFSET -0.498041 20.188049 0.000000
				}
			}
		}
		JOINT RightUpLeg
		{
			OFFSET -11.717000 -9.376404 -2.439400
			CHANNELS 3 Xrotation Yrotation Zrotation
			JOINT RightLeg
			{
				OFFSET -0.003241 -32.846912 2.110600
				CHANNELS 3 Xrotation Yrotation Zrotation
				JOINT RightFoot
				{
					OFFSET 0.003241 -32.065136 -0.570500
					CHANNELS 3 Xrotation Yrotation Zrotation
					JOINT RightToeBase
					{
						OFFSET -0.728300 -11.045901 13.180700
						CHANNELS 3 Xrotation Yrotation Zrotation
						End Site
						{
							OFFSET 0.000000 17.212593 0.000000
						}
					}
				}
				JOINT RightPantLeg
				{
					OFFSET 0.008142 -16.708982 -3.143700
					CHANNELS 3 Xrotation Yrotation Zrotation
					End Site
					{
						OFFSET 0.605088 24.528715 0.000000
					}
				}
			}
			JOINT Right_Butt
			{
				OFFSET 6.630732 1.326584 -3.183700
				CHANNELS 3 Xrotation Yrotation Zrotation
				End Site
				{
					OFFSET 0.498015 20.188240 0.000000
				}
			}
		}
	}
	JOINT Spine
	{
		OFFSET -0.062400 7.848404 3.918300
		CHANNELS 3 Xrotation Yrotation Zrotation
		JOINT Spine1
		{
			OFFSET -0.072800 11.422302 0.713400
			CHANNELS 3 Xrotation Yrotation Zrotation
			JOINT Spine2
			{
				OFFSET -0.083200 13.054001 -1.931600
				CHANNELS 3 Xrotation Yrotation Zrotation
				JOINT Neck
				{
					OFFSET -0.092200 14.121796 -5.138800
					CHANNELS 3 Xrotation Yrotation Zrotation
					JOINT Head
					{
						OFFSET 0.000200 10.447403 -0.842000
						CHANNELS 3 Xrotation Yrotation Zrotation
						JOINT Visor
						{
							OFFSET 0.457100 25.671204 16.550400
							CHANNELS 3 Xrotation Yrotation Zrotation
							End Site
							{
								OFFSET 0.000000 26.061493 0.000000
							}
						}
						JOINT HairMidA
						{
							OFFSET 0.459400 31.585403 8.437400
							CHANNELS 3 Xrotation Yrotation Zrotation
							End Site
							{
								OFFSET 0.000000 26.061493 0.000000
							}
						}
						JOINT HairMidB
						{
							OFFSET 0.464000 33.309204 -8.389700
							CHANNELS 3 Xrotation Yrotation Zrotation
							End Site
							{
								OFFSET 0.000000 26.061493 0.000000
							}
						}
						JOINT HairMidC
						{
							OFFSET 0.466600 27.991196 -17.375099
							CHANNELS 3 Xrotation Yrotation Zrotation
							End Site
							{
								OFFSET 0.000000 26.061493 0.000000
							}
						}
						JOINT HairMidD
						{
							OFFSET 0.467700 17.888092 -21.169500
							CHANNELS 3 Xrotation Yrotation Zrotation
							End Site
							{
								OFFSET 0.000000 26.061493 0.000000
							}
						}
						JOINT HairMidE
						{
							OFFSET 5.325700 3.514603 -14.369699
							CHANNELS 3 Xrotation Yrotation Zrotation
							End Site
							{
								OFFSET 0.000000 26.061493 0.000000
							}
						}
						JOINT HairMidF
						{
							OFFSET -4.394100 3.514603 -14.372400
							CHANNELS 3 Xrotation Yrotation Zrotation
							End Site
							{
								OFFSET 0.000000 26.061493 0.000000
							}
						}
						JOINT HairLeftA
						{
							OFFSET 15.319900 25.746506 2.623300
							CHANNELS 3 Xrotation Yrotation Zrotation
							End Site
							{
								OFFSET 0.000000 26.061493 0.000000
							}
						}
						JOINT HairLeftB
						{
							OFFSET 12.619500 29.289398 -8.731499
							CHANNELS 3 Xrotation Yrotation Zrotation
							End Site
							{
								OFFSET 0.000000 26.061493 0.000000
							}
						}
						JOINT HairLeftC
						{
							OFFSET 15.714800 15.959900 2.909800
							CHANNELS 3 Xrotation Yrotation Zrotation
							End Site
							{
								OFFSET 0.000000 26.061493 0.000000
							}
						}
						JOINT HairLeftD
						{
							OFFSET 16.101700 18.437408 -7.553200
							CHANNELS 3 Xrotation Yrotation Zrotation
							End Site
							{
								OFFSET 0.000000 26.061493 0.000000
							}
						}
						JOINT HairLeftE
						{
							OFFSET 9.731900 17.915009 -18.316799
							CHANNELS 3 Xrotation Yrotation Zrotation
							End Site
							{
								OFFSET 0.000000 26.061493 0.000000
							}
						}
						JOINT HairLeftF
						{
							OFFSET 11.204300 4.953598 -9.668100
							CHANNELS 3 Xrotation Yrotation Zrotation
							End Site
							{
								OFFSET 0.000000 26.061493 0.000000
							}
						}
						JOINT HairRightA
						{
							OFFSET -14.397900 25.746307 2.615100
							CHANNELS 3 Xrotation Yrotation Zrotation
							End Site
							{
								OFFSET 0.000000 26.061493 0.000000
							}
						}
						JOINT HairRightB
						{
							OFFSET -11.691200 29.289200 -8.738199
							CHANNELS 3 Xrotation Yrotation Zrotation
							End Site
							{
								OFFSET 0.000000 26.061493 0.000000
							}
						}
						JOINT HairRightC
						{
							OFFSET -14.792900 15.959702 2.901400
							CHANNELS 3 Xrotation Yrotation Zrotation
							End Site
							{
								OFFSET 0.000000 26.061493 0.000000
							}
						}
						JOINT HairRightD
						{
							OFFSET -15.174000 18.437195 -7.561900
							CHANNELS 3 Xrotation Yrotation Zrotation
							End Site
							{
								OFFSET 0.000000 26.061493 0.000000
							}
						}
						JOINT HairRightE
						{
							OFFSET -8.798200 17.914902 -18.322001
							CHANNELS 3 Xrotation Yrotation Zrotation
							End Site
							{
								OFFSET 0.000000 26.061493 0.000000
							}
						}
						JOINT HairRightF
						{
							OFFSET -10.275200 4.953506 -9.674099
							CHANNELS 3 Xrotation Yrotation Zrotation
							End Site
							{
								OFFSET 0.000000 26.061493 0.000000
							}
						}
					}
				}
				JOINT LeftShoulder
				{
					OFFSET 5.133500 7.341202 -1.867600
					CHANNELS 3 Xrotation Yrotation Zrotation
					JOINT LeftArm
					{
						OFFSET 8.072663 0.936867 -2.176600
						CHANNELS 3 Xrotation Yrotation Zrotation
						JOINT LeftForeArm
						{
							OFFSET 31.271999 0.000000 0.000000
							CHANNELS 3 Xrotation Yrotation Zrotation
							JOINT LeftHand
							{
								OFFSET 31.771030 0.000000 0.000000
								CHANNELS 3 Xrotation Yrotation Zrotation
								JOINT LeftHandThumb1
								{
									OFFSET 2.886520 -2.557846 4.416640
									CHANNELS 3 Xrotation Yrotation Zrotation
									JOINT LeftHandThumb2
									{
										OFFSET 2.371025 -1.368912 1.368911
										CHANNELS 3 Xrotation Yrotation Zrotation
										JOINT LeftHandThumb3
										{
											OFFSET 2.243378 -1.295212 1.295213
											CHANNELS 3 Xrotation Yrotation Zrotation
											End Site
											{
												OFFSET -0.332611 2.876945 0.020015
											}
										}
									}
								}
								JOINT LeftHandIndex1
								{
									OFFSET 8.568985 -0.641945 3.119977
									CHANNELS 3 Xrotation Yrotation Zrotation
									JOINT LeftHandIndex2
									{
										OFFSET 3.348503 0.000000 0.000000
										CHANNELS 3 Xrotation Yrotation Zrotation
										JOINT LeftHandIndex3
										{
											OFFSET 3.314552 0.000000 0.000000
											CHANNELS 3 Xrotation Yrotation Zrotation
											End Site
											{
												OFFSET -1.032898 3.075485 0.678796
											}
										}
									}
								}
								JOINT LeftHandMiddle1
								{
									OFFSET 8.124603 0.000000 0.000000
									CHANNELS 3 Xrotation Yrotation Zrotation
									JOINT LeftHandMiddle2
									{
										OFFSET 4.166275 0.000000 0.000000
										CHANNELS 3 Xrotation Yrotation Zrotation
										JOINT LeftHandMiddle3
										{
											OFFSET 3.018135 0.000000 0.000000
											CHANNELS 3 Xrotation Yrotation Zrotation
											End Site
											{
												OFFSET -1.032700 2.767982 0.617226
											}
										}
									}
								}
								JOINT LeftHandRing1
								{
									OFFSET 8.571686 -0.031357 -2.884048
									CHANNELS 3 Xrotation Yrotation Zrotation
									JOINT LeftHandRing2
									{
										OFFSET 3.671181 0.000000 0.000000
										CHANNELS 3 Xrotation Yrotation Zrotation
										JOINT LeftHandRing3
										{
											OFFSET 2.728851 0.000000 0.000000
											CHANNELS 3 Xrotation Yrotation Zrotation
											End Site
											{
												OFFSET -0.815796 2.539223 0.577389
											}
										}
									}
								}
								JOINT LeftHandPinky1
								{
									OFFSET 7.854515 -0.675232 -5.213020
									CHANNELS 3 Xrotation Yrotation Zrotation
									JOINT LeftHandPinky2
									{
										OFFSET 3.068596 0.000000 0.000000
										CHANNELS 3 Xrotation Yrotation Zrotation
										JOINT LeftHandPinky3
										{
											OFFSET 2.396042 0.000000 0.000000
											CHANNELS 3 Xrotation Yrotation Zrotation
											End Site
											{
												OFFSET -0.524597 2.267998 0.567429
											}
										}
									}
								}
							}
							JOINT LeftSleeve
							{
								OFFSET 19.684509 -0.200119 0.476146
								CHANNELS 3 Xrotation Yrotation Zrotation
								End Site
								{
									OFFSET -0.031017 25.731133 -0.002868
								}
							}
						}
					}
				}
				JOINT RightShoulder
				{
					OFFSET -4.395900 7.341202 -1.870200
					CHANNELS 3 Xrotation Yrotation Zrotation
					JOINT RightArm
					{
						OFFSET -8.071453 0.936867 -2.181100
						CHANNELS 3 Xrotation Yrotation Zrotation
						JOINT RightForeArm
						{
							OFFSET -31.272011 0.000000 0.000000
							CHANNELS 3 Xrotation Yrotation Zrotation
							JOINT RightHand
							{
								OFFSET -31.771019 0.000000 0.000000
								CHANNELS 3 Xrotation Yrotation Zrotation
								JOINT RightHandThumb1
								{
									OFFSET -2.886520 -2.557808 4.416626
									CHANNELS 3 Xrotation Yrotation Zrotation
									JOINT RightHandThumb2
									{
										OFFSET -2.371056 -1.368927 1.368928
										CHANNELS 3 Xrotation Yrotation Zrotation
										JOINT RightHandThumb3
										{
											OFFSET -2.243362 -1.295204 1.295206
											CHANNELS 3 Xrotation Yrotation Zrotation
											End Site
											{
												OFFSET 0.332642 2.876938 0.020047
											}
										}
									}
								}
								JOINT RightHandIndex1
								{
									OFFSET -8.568993 -0.641953 3.120017
									CHANNELS 3 Xrotation Yrotation Zrotation
									JOINT RightHandIndex2
									{
										OFFSET -3.348518 0.000000 0.000000
										CHANNELS 3 Xrotation Yrotation Zrotation
										JOINT RightHandIndex3
										{
											OFFSET -3.314552 0.000000 0.000000
											CHANNELS 3 Xrotation Yrotation Zrotation
											End Site
											{
												OFFSET 1.032898 3.075478 0.678804
											}
										}
									}
								}
								JOINT RightHandMiddle1
								{
									OFFSET -8.124588 0.000000 0.000000
									CHANNELS 3 Xrotation Yrotation Zrotation
									JOINT RightHandMiddle2
									{
										OFFSET -4.166275 0.000000 0.000000
										CHANNELS 3 Xrotation Yrotation Zrotation
										JOINT RightHandMiddle3
										{
											OFFSET -3.018097 0.000000 0.000000
											CHANNELS 3 Xrotation Yrotation Zrotation
											End Site
											{
												OFFSET 1.032700 2.767937 0.617197
											}
										}
									}
								}
								JOINT RightHandRing1
								{
									OFFSET -8.571747 -0.031349 -2.884061
									CHANNELS 3 Xrotation Yrotation Zrotation
									JOINT RightHandRing2
									{
										OFFSET -3.671204 0.000000 0.000000
										CHANNELS 3 Xrotation Yrotation Zrotation
										JOINT RightHandRing3
										{
											OFFSET -2.728874 0.000000 0.000000
											CHANNELS 3 Xrotation Yrotation Zrotation
											End Site
											{
												OFFSET 0.815804 2.539261 0.577413
											}
										}
									}
								}
								JOINT RightHandPinky1
								{
									OFFSET -7.854561 -0.675247 -5.212970
									CHANNELS 3 Xrotation Yrotation Zrotation
									JOINT RightHandPinky2
									{
										OFFSET -3.068550 0.000000 0.000000
										CHANNELS 3 Xrotation Yrotation Zrotation
										JOINT RightHandPinky3
										{
											OFFSET -2.395981 0.000000 0.000000
											CHANNELS 3 Xrotation Yrotation Zrotation
											End Site
											{
												OFFSET 0.524605 2.267952 0.567413
											}
										}
									}
								}
							}
							JOINT RightSleeve
							{
								OFFSET -19.684753 -0.200165 0.476065
								CHANNELS 3 Xrotation Yrotation Zrotation
								End Site
								{
									OFFSET 0.031342 25.731255 -0.002917
								}
							}
						}
					}
				}
				JOINT Hood
				{
					OFFSET 0.369700 14.447800 -5.317800
					CHANNELS 3 Xrotation Yrotation Zrotation
					JOINT Hood1
					{
						OFFSET 0.001700 -5.553802 -5.895100
						CHANNELS 3 Xrotation Yrotation Zrotation
						JOINT Hood2
						{
							OFFSET -0.000200 -8.380501 0.763600
							CHANNELS 3 Xrotation Yrotation Zrotation
							End Site
							{
								OFFSET 0.000000 8.415215 0.000000
							}
						}
					}
				}
				JOINT Left_Breast
				{
					OFFSET 5.682500 3.120102 3.188800
					CHANNELS 3 Xrotation Yrotation Zrotation
					End Site
					{
						OFFSET 0.000000 10.528564 0.000000
					}
				}
				JOINT Right_Breast
				{
					OFFSET -4.947600 3.120102 3.185900
					CHANNELS 3 Xrotation Yrotation Zrotation
					End Site
					{
						OFFSET 0.000000 10.528564 0.000000
					}
				}
				JOINT Whistle
				{
					OFFSET 0.368200 11.471298 0.095400
					CHANNELS 3 Xrotation Yrotation Zrotation
					JOINT Whistle1
					{
						OFFSET -0.002000 -6.349899 7.479800
						CHANNELS 3 Xrotation Yrotation Zrotation
						JOINT Whistle2
						{
							OFFSET -0.001300 -8.217598 4.717600
							CHANNELS 3 Xrotation Yrotation Zrotation
							End Site
							{
								OFFSET 0.000000 9.475479 0.000000
							}
						}
					}
				}
			}
		}
		JOINT Belly
		{
			OFFSET 0.212400 1.593002 3.163700
			CHANNELS 3 Xrotation Yrotation Zrotation
			End Site
			{
				OFFSET 0.000000 7.496635 0.000000
			}
		}
	}
	JOINT FitGrandmaFacialAnim_Joint
	{
		OFFSET 1.150000 -86.211197 -1.220100
		CHANNELS 3 Xrotation Yrotation Zrotation
		End Site
		{
			OFFSET 0.000000 31.666618 0.000000
		}
	}
}
MOTION
Frames: 4
Frame Time: 0.016667
4.289620 66.694244 118.404388 8.402778 -19.712375 1.129400 -0.000001 -0.000001 -0.000000 27.850593 33.160545 6.565031 34.736160 18.786671 -5.454785 -28.827906 -3.946446 -29.483369 0.000001 -0.000003 -0.000000 -0.000005 0.000002 -0.000001 -0.000001 0.000000 -0.000000 -71.024528 -6.675622 -8.429544 63.904759 3.521373 -7.671913 -2.107431 7.579042 5.555455 0.000000 0.000000 -0.000000 0.000001 -0.000003 -0.000000 0.000000 -0.000001 -0.000002 2.393195 -4.325923 1.489395 4.820223 -8.149193 2.085949 4.820151 -8.149131 2.085945 9.532185 2.585890 14.901485 -2.611319 9.939548 -20.211636 -0.000000 -0.000001 0.000001 -0.000000 -0.000001 0.000001 -0.000000 -0.000001 0.000001 -0.000000 -0.000001 0.000001 -0.000000 -0.000001 0.000001 -0.000000 -0.000001 0.000001 -0.000000 -0.000001 0.000001 -0.000000 -0.000001 0.000001 -0.000000 -0.000001 0.000001 -0.000000 -0.000001 0.000001 -0.000000 -0.000001 0.000001 -0.000000 -0.000001 0.000001 -0.000000 -0.000001 0.000001 -0.000000 -0.000001 0.000001 -0.000000 -0.000001 0.000001 -0.000000 -0.000001 0.000001 -0.000000 -0.000001 0.000001 -0.000000 -0.000001 0.000001 -0.000000 -0.000001 0.000001 -4.481864 -16.524623 -19.193559 -50.218266 -13.065786 -29.545349 -9.513729 -45.265132 18.313334 -90.641337 -9.142703 11.811252 18.604752 9.201134 -20.335719 9.366551 23.517117 3.907228 -0.000002 -0.000000 -0.000000 5.062918 7.259518 -60.393489 0.009010 -4.396081 -76.234747 -0.000001 0.000001 0.000001 -0.063974 4.758027 -60.986834 -0.080457 -4.896954 -84.974363 -0.000000 0.000002 0.000003 -0.034397 -0.056992 -61.362262 -0.169922 -1.351919 -91.625383 0.000002 -0.000002 -0.000000 -4.255071 -2.157305 -63.603172 -0.059620 -0.064789 -85.011062 -0.000001 -0.000001 0.000002 0.000002 -0.000001 0.000000 0.026766 -1.767829 1.230269 -18.293012 31.587309 8.179654 40.535175 8.128191 -4.683265 -43.424693 -46.363717 -11.839829 15.959768 -4.187807 29.032204 -14.791990 -41.235488 -16.515568 -0.000001 0.000001 0.000001 5.358201 -4.863553 67.585043 0.006267 4.394804 68.693432 -0.000003 0.000004 0.000000 -0.076830 -4.752179 70.834888 -0.076444 4.897913 82.216367 -0.000002 -0.000002 -0.000006 -1.164524 -6.475325 73.357475 -0.172067 1.351235 92.834360 -0.000000 -0.000006 -0.000002 -5.344926 -12.802422 81.125258 -0.058422 0.065331 84.695999 -0.000003 0.000001 0.000001 0.000003 0.000001 0.000001 0.000001 -0.000002 0.000001 0.000001 -0.000002 0.000001 0.000001 -0.000002 0.000001 0.000001 -0.000002 0.000001 0.000001 -0.000002 0.000001 0.000001 -0.000002 0.000001 0.000001 0.000002 -0.000001 0.000001 0.000002 -0.000001 -0.000000 -0.000002 -0.000000 -0.000001 -0.000001 -0.000000 
3.854736 66.929764 120.462105 10.266047 -18.783176 0.589094 -0.000001 0.000000 -0.000000 27.997996 34.618438 7.161675 30.928060 20.791576 -5.447722 -24.995105 -5.331599 -29.626663 0.000001 0.000001 -0.000000 0.000000 -0.000003 0.000000 -0.000004 0.000000 0.000000 -71.518924 -8.049480 -9.137167 65.732976 4.635298 -7.676128 -5.131639 6.308835 5.609300 -0.000000 -0.000001 -0.000000 -0.000000 0.000001 0.000000 0.000003 -0.000001 0.000000 2.413579 -5.309724 1.797321 4.899762 -10.154808 2.662431 4.899738 -10.154732 2.662413 8.502564 4.160257 15.381253 -1.540124 11.907274 -20.331221 0.000000 0.000001 0.000000 0.000000 0.000001 0.000000 0.000000 0.000001 0.000000 0.000000 0.000001 0.000000 0.000000 0.000001 0.000000 0.000000 0.000001 0.000000 0.000000 0.000001 0.000000 0.000000 0.000001 0.000000 0.000000 0.000001 0.000000 0.000000 0.000001 0.000000 0.000000 0.000001 0.000000 0.000000 0.000001 0.000000 0.000000 0.000001 0.000000 0.000000 0.000001 0.000000 0.000000 0.000001 0.000000 0.000000 0.000001 0.000000 0.000000 0.000001 0.000000 0.000000 0.000001 0.000000 0.000000 0.000001 0.000000 -5.170236 -18.664301 -18.158329 -46.432787 -18.052712 -34.485581 -9.204868 -38.217039 16.317037 -98.519967 2.929885 8.071452 18.604747 9.201131 -20.335712 9.366557 23.517111 3.907227 -0.000002 -0.000002 0.000001 5.062909 7.259517 -60.393489 0.009007 -4.396081 -76.234747 0.000002 -0.000001 0.000000 -0.063974 4.758024 -60.986827 -0.080456 -4.896954 -84.974363 -0.000001 0.000000 -0.000003 -0.034400 -0.056994 -61.362262 -0.169922 -1.351923 -91.625383 -0.000001 0.000000 -0.000001 -4.255073 -2.157308 -63.603166 -0.059622 -0.064787 -85.011062 0.000001 -0.000001 0.000002 -0.000001 0.000001 0.000002 0.248737 -2.144200 4.457619 -14.470972 21.706650 4.671644 37.782253 8.308574 -4.381098 -41.885148 -47.673710 -10.025589 15.959768 -4.187802 29.032201 -14.791994 -41.235488 -16.515568 -0.000001 -0.000000 -0.000001 5.358198 -4.863553 67.585043 0.006272 4.394806 68.693432 0.000002 0.000001 -0.000000 -0.076828 -4.752184 70.834895 -0.076450 4.897909 82.216353 -0.000000 0.000002 -0.000001 -1.164525 -6.475321 73.357482 -0.172064 1.351236 92.834353 0.000001 -0.000003 0.000001 -5.344924 -12.802423 81.125258 -0.058419 0.065334 84.695992 -0.000001 -0.000001 0.000000 0.000003 -0.000001 -0.000002 -0.000001 0.000000 0.000000 -0.000001 0.000000 0.000000 -0.000001 0.000000 0.000000 -0.000001 0.000000 0.000000 -0.000001 0.000000 0.000000 -0.000001 0.000000 0.000000 -0.000001 0.000000 -0.000000 -0.000001 0.000000 -0.000000 -0.000001 0.000002 0.000000 -0.000001 0.000000 -0.000000 
3.395871 67.236504 122.667206 12.001374 -17.744598 0.028081 0.000001 0.000000 -0.000000 27.729161 35.931918 8.091622 27.499151 22.964445 -5.406537 -19.674952 -6.948110 -29.610168 0.000002 0.000005 -0.000002 0.000001 0.000003 -0.000000 -0.000002 0.000001 0.000001 -71.487301 -9.056045 -9.752868 67.459647 6.157178 -7.640554 -8.355878 4.283585 5.697035 -0.000000 -0.000001 0.000000 -0.000000 -0.000000 0.000001 0.000000 -0.000001 -0.000000 2.429529 -6.173286 1.997625 4.960982 -11.924859 3.021994 4.961000 -11.924949 3.022034 7.327439 5.709602 15.847432 -0.541794 13.761526 -20.423743 -0.000001 -0.000002 0.000001 -0.000001 -0.000002 0.000001 -0.000001 -0.000002 0.000001 -0.000001 -0.000002 0.000001 -0.000001 -0.000002 0.000001 -0.000001 -0.000002 0.000001 -0.000001 -0.000002 0.000001 -0.000001 -0.000002 0.000001 -0.000001 -0.000002 0.000001 -0.000001 -0.000002 0.000001 -0.000001 -0.000002 0.000001 -0.000001 -0.000002 0.000001 -0.000001 -0.000002 0.000001 -0.000001 -0.000002 0.000001 -0.000001 -0.000002 0.000001 -0.000001 -0.000002 0.000001 -0.000001 -0.000002 0.000001 -0.000001 -0.000002 0.000001 -0.000001 -0.000002 0.000001 -5.400959 -20.399530 -16.650065 -43.348465 -23.388164 -38.897917 -9.093633 -31.903817 14.184696 -106.152416 14.962533 7.623588 18.604749 9.201127 -20.335715 9.366553 23.517113 3.907227 -0.000001 -0.000000 -0.000001 5.062911 7.259524 -60.393489 0.009009 -4.396084 -76.234747 0.000002 0.000001 0.000001 -0.063976 4.758021 -60.986834 -0.080456 -4.896954 -84.974363 -0.000000 -0.000001 -0.000003 -0.034399 -0.056991 -61.362262 -0.169922 -1.351921 -91.625389 0.000000 -0.000001 0.000004 -4.255075 -2.157307 -63.603166 -0.059620 -0.064790 -85.011062 -0.000000 -0.000001 0.000002 0.000003 -0.000000 -0.000001 0.440959 -2.570723 6.867599 -12.839524 16.555902 3.599500 34.933658 8.728762 -3.601191 -39.383649 -54.979953 -8.524771 15.959768 -4.187805 29.032207 -14.791992 -41.235491 -16.515568 -0.000002 -0.000000 0.000000 5.358196 -4.863552 67.585036 0.006268 4.394805 68.693439 -0.000001 0.000001 0.000003 -0.076830 -4.752185 70.834895 -0.076446 4.897911 82.216360 0.000001 0.000001 -0.000003 -1.164526 -6.475325 73.357482 -0.172068 1.351234 92.834353 0.000001 -0.000001 -0.000001 -5.344928 -12.802425 81.125258 -0.058420 0.065332 84.695999 -0.000000 0.000000 -0.000000 0.000001 0.000002 -0.000001 -0.000000 0.000002 -0.000001 -0.000000 0.000002 -0.000001 -0.000000 0.000002 -0.000001 -0.000000 0.000002 -0.000001 -0.000000 0.000002 -0.000001 -0.000000 0.000002 -0.000001 -0.000002 0.000005 -0.000001 -0.000002 0.000005 -0.000001 0.000001 0.000001 -0.000001 0.000001 0.000000 -0.000000 
2.977528 67.484833 124.575661 13.055090 -18.033996 -0.516417 0.000001 -0.000001 0.000000 27.777005 36.995996 8.806093 25.018517 24.816490 -5.107510 -12.630441 -8.842812 -30.335496 -0.000001 -0.000001 -0.000000 0.000002 0.000002 0.000002 0.000001 -0.000000 0.000000 -70.786018 -9.517907 -9.118962 68.335483 6.069700 -7.689757 -10.813520 3.963083 5.978398 -0.000000 -0.000001 -0.000000 0.000000 0.000001 -0.000001 0.000004 0.000001 -0.000001 2.440854 -6.881739 2.149271 5.005432 -13.331985 3.278265 5.005471 -13.331917 3.278245 6.051128 7.224982 16.300544 0.372248 15.500513 -20.487823 0.000001 0.000000 -0.000001 0.000001 0.000000 -0.000001 0.000001 0.000000 -0.000001 0.000001 0.000000 -0.000001 0.000001 0.000000 -0.000001 0.000001 0.000000 -0.000001 0.000001 0.000000 -0.000001 0.000001 0.000000 -0.000001 0.000001 0.000000 -0.000001 0.000001 0.000000 -0.000001 0.000001 0.000000 -0.000001 0.000001 0.000000 -0.000001 0.000001 0.000000 -0.000001 0.000001 0.000000 -0.000001 0.000001 0.000000 -0.000001 0.000001 0.000000 -0.000001 0.000001 0.000000 -0.000001 0.000001 0.000000 -0.000001 0.000001 0.000000 -0.000001 -5.462531 -21.822325 -15.277260 -41.539848 -28.186681 -42.662666 -9.092992 -26.803746 12.045808 -113.642716 25.261596 10.199998 18.604749 9.201131 -20.335717 9.366557 23.517113 3.907228 -0.000002 0.000003 0.000002 5.062911 7.259520 -60.393489 0.009010 -4.396079 -76.234753 -0.000001 -0.000001 0.000000 -0.063975 4.758027 -60.986834 -0.080454 -4.896957 -84.974356 -0.000006 -0.000003 -0.000004 -0.034399 -0.056996 -61.362262 -0.169921 -1.351920 -91.625383 0.000000 0.000000 0.000001 -4.255074 -2.157309 -63.603166 -0.059623 -0.064789 -85.011055 -0.000001 -0.000001 -0.000002 0.000002 0.000002 0.000006 0.571898 -3.041685 8.393501 -12.235264 14.739599 3.552610 31.986903 9.211497 -2.529615 -37.140246 -64.951185 -8.983989 15.959772 -4.187804 29.032201 -14.791990 -41.235488 -16.515570 0.000000 0.000001 -0.000002 5.358200 -4.863550 67.585043 0.006268 4.394806 68.693439 -0.000001 0.000001 -0.000000 -0.076828 -4.752184 70.834895 -0.076444 4.897911 82.216360 -0.000000 0.000001 -0.000001 -1.164523 -6.475324 73.357488 -0.172065 1.351236 92.834360 0.000000 -0.000000 0.000003 -5.344925 -12.802426 81.125258 -0.058420 0.065330 84.695992 -0.000003 -0.000002 0.000001 -0.000000 -0.000000 -0.000001 0.000002 0.000002 0.000000 0.000002 0.000002 0.000000 0.000002 0.000002 0.000000 0.000002 0.000002 0.000000 0.000002 0.000002 0.000000 0.000002 0.000002 0.000000 0.000001 0.000000 -0.000000 0.000001 0.000000 -0.000000 0.000001 -0.000001 -0.000000 0.000001 -0.000001 0.000000 
